<?xml version="1.0" encoding="UTF-8"?>
<svg xmlns="http://www.w3.org/2000/svg"
    xmlns:latexdraw="http://latexdraw.sourceforge.net/namespaces/latexdraw"
    version="1.1" baseProfile="full">
    <defs/>
    <g>
        <g latexdraw:type="rectangle" id="id153">
            <rect x="174.0" y="56.0" width="149.0" height="80.0"
                latexdraw:borderPos="outer" stroke-width="2.0"
                stroke="black" fill="none"/>
        </g>
        <g latexdraw:type="rectangle" id="id154">
            <rect x="291.0" y="59.0" width="31.0" height="76.0"
                latexdraw:borderPos="outer" stroke-width="2.0"
                stroke="black" fill="none"/>
        </g>
        <g latexdraw:type="rectangle" id="id155">
            <rect x="247.0" y="61.0" width="42.0" height="23.0"
                latexdraw:borderPos="outer" stroke-width="2.0"
                stroke="black" fill="none"/>
        </g>
        <g latexdraw:type="text" id="id156"
            font-family="Times New Roman" fill="black" font-size="18" latexdraw:x="252.0">
            <text x="252.0" y="78.0"><![CDATA[USB]]></text>
        </g>
        <g latexdraw:type="text" id="id159"
            font-family="Times New Roman" fill="black" font-size="18"
            latexdraw:x="285.0" transform="rotate(-89.77814785283371) translate(-400.57534336962715 214.0473706846301)">
            <text x="285.0" y="100.0"><![CDATA[CON1]]></text>
        </g>
        <g latexdraw:type="text" id="id162"
            font-family="Times New Roman" fill="black" font-size="18" latexdraw:x="184.0">
            <text x="184.0" y="116.0"><![CDATA[Tiny6410]]></text>
        </g>
        <g latexdraw:type="rectangle" id="id165">
            <rect x="616.0" y="89.0" width="178.0" height="92.0"
                latexdraw:borderPos="outer" stroke-width="2.0"
                stroke="black" fill="none"/>
        </g>
        <g latexdraw:type="text" id="id166"
            font-family="Times New Roman" fill="black" font-size="18" latexdraw:x="644.0">
            <text x="644.0" y="139.0"><![CDATA[Prototype Board]]></text>
        </g>
        <g latexdraw:type="akinPoints" id="id169" latexdraw:pathType="1"
            latexdraw:interval="5" latexdraw:points="320.0 110.0 322.0 110.0 324.0 110.0 331.0 110.0 338.0 110.0 345.0 109.0 352.0 109.0 356.0 109.0 360.0 109.0 361.0 109.0 364.0 109.0 364.0 110.0 367.0 111.0 368.0 112.0 371.0 113.0 374.0 116.0 377.0 117.0 380.0 119.0 382.0 120.0 384.0 121.0 384.0 122.0 385.0 124.0 386.0 126.0 387.0 127.0 388.0 130.0 390.0 132.0 391.0 135.0 392.0 136.0 393.0 139.0 396.0 142.0 398.0 144.0 400.0 145.0 401.0 148.0 403.0 150.0 404.0 150.0 406.0 151.0 408.0 152.0 410.0 152.0 412.0 153.0 416.0 153.0 420.0 154.0 424.0 156.0 429.0 156.0 433.0 156.0 436.0 156.0 441.0 156.0 444.0 156.0 447.0 156.0 449.0 156.0 452.0 156.0 455.0 156.0 457.0 153.0 460.0 152.0 462.0 152.0 465.0 151.0 468.0 149.0 474.0 148.0 479.0 146.0 484.0 145.0 488.0 144.0 492.0 144.0 495.0 144.0 497.0 144.0 499.0 144.0 501.0 145.0 503.0 146.0 505.0 147.0 508.0 148.0 511.0 148.0 514.0 150.0 516.0 151.0 520.0 152.0 523.0 153.0 527.0 154.0 530.0 155.0 533.0 156.0 535.0 156.0 537.0 157.0 539.0 157.0 541.0 158.0 543.0 158.0 545.0 158.0 548.0 158.0 551.0 158.0 555.0 158.0 557.0 158.0 560.0 158.0 563.0 158.0 567.0 158.0 571.0 157.0 573.0 157.0 576.0 156.0 579.0 156.0 581.0 156.0 584.0 156.0 586.0 156.0 588.0 156.0 590.0 156.0 591.0 156.0 592.0 156.0 596.0 156.0 598.0 157.0 600.0 157.0 604.0 157.0 607.0 157.0 608.0 157.0 609.0 157.0 610.0 157.0 611.0 157.0 612.0 157.0 613.0 157.0 614.0 157.0 615.0 157.0 ">
            <path
                d="M 320.0 110.0 L 332.5 109.5 C 338.75 109.25 349.75 109.0 354.5 109.0 C 359.25 109.0 366.5 110.75 369.0 112.5 C 371.5 114.25 376.5 117.5 379.0 119.0 C 381.5 120.5 385.5 124.5 387.0 127.0 C 388.5 129.5 392.0 135.0 394.0 138.0 C 396.0 141.0 400.0 145.75 402.0 147.5 C 404.0 149.25 409.5 151.75 413.0 152.5 C 416.5 153.25 425.25 154.5 430.5 155.0 C 435.75 155.5 444.5 156.0 448.0 156.0 C 451.5 156.0 458.25 154.25 461.5 152.5 C 464.75 150.75 474.0 147.75 480.0 146.5 C 486.0 145.25 494.75 144.5 497.5 145.0 C 500.25 145.5 506.25 147.25 509.5 148.5 C 512.75 149.75 520.25 152.25 524.5 153.5 C 528.75 154.75 535.5 156.5 538.0 157.0 C 540.5 157.5 546.5 158.0 550.0 158.0 C 553.5 158.0 561.0 157.75 565.0 157.5 C 569.0 157.25 576.25 156.75 579.5 156.5 C 582.75 156.25 588.5 156.0 591.0 156.0 C 593.5 156.0 599.0 156.25 602.0 156.5 C 605.0 156.75 609.25 157.0 610.5 157.0 C 611.75 157.0 613.5 157.0 615.0 157.0 "
                stroke-width="2.0" stroke="black" fill="none" latexdraw:rotationAngle="0.0"/>
        </g>
        <g latexdraw:type="akinPoints" id="id170" latexdraw:pathType="1"
            latexdraw:interval="5" latexdraw:points="267.0 56.0 268.0 55.0 268.0 54.0 270.0 51.0 272.0 47.0 274.0 44.0 277.0 40.0 280.0 37.0 284.0 33.0 290.0 29.0 296.0 26.0 301.0 23.0 309.0 18.0 316.0 15.0 323.0 12.0 330.0 10.0 336.0 8.0 341.0 8.0 346.0 8.0 350.0 8.0 353.0 9.0 357.0 11.0 360.0 12.0 366.0 16.0 370.0 18.0 376.0 20.0 381.0 23.0 387.0 24.0 392.0 27.0 396.0 29.0 401.0 31.0 406.0 32.0 410.0 33.0 416.0 36.0 420.0 37.0 425.0 38.0 429.0 39.0 434.0 40.0 438.0 40.0 443.0 40.0 448.0 40.0 452.0 40.0 458.0 40.0 464.0 40.0 470.0 40.0 476.0 40.0 481.0 40.0 488.0 41.0 495.0 43.0 500.0 44.0 504.0 44.0 507.0 45.0 513.0 48.0 520.0 49.0 525.0 51.0 533.0 52.0 540.0 54.0 551.0 55.0 560.0 56.0 569.0 56.0 576.0 56.0 583.0 56.0 589.0 56.0 596.0 56.0 600.0 56.0 608.0 56.0 612.0 56.0 616.0 56.0 620.0 56.0 622.0 56.0 624.0 56.0 627.0 57.0 629.0 59.0 633.0 60.0 636.0 61.0 640.0 63.0 645.0 64.0 650.0 67.0 658.0 69.0 664.0 72.0 668.0 73.0 671.0 74.0 672.0 75.0 673.0 76.0 674.0 76.0 675.0 77.0 676.0 77.0 676.0 78.0 677.0 79.0 678.0 79.0 679.0 80.0 680.0 80.0 680.0 81.0 681.0 82.0 682.0 83.0 682.0 84.0 682.0 85.0 682.0 86.0 ">
            <path
                d="M 267.0 56.0 L 270.5 50.0 C 272.25 47.0 279.5 39.5 285.0 35.0 C 290.5 30.5 304.5 22.0 313.0 18.0 C 321.5 14.0 335.75 9.75 341.5 9.5 C 347.25 9.25 358.75 11.75 364.5 14.5 C 370.25 17.25 382.25 22.75 388.5 25.5 C 394.75 28.25 407.0 32.75 413.0 34.5 C 419.0 36.25 430.75 38.5 436.5 39.0 C 442.25 39.5 455.0 40.0 462.0 40.0 C 469.0 40.0 483.0 41.0 490.0 42.0 C 497.0 43.0 511.25 46.0 518.5 48.0 C 525.75 50.0 543.75 53.0 554.5 54.0 C 565.25 55.0 584.0 56.0 592.0 56.0 C 600.0 56.0 612.0 56.0 616.0 56.0 C 620.0 56.0 628.0 57.75 632.0 59.5 C 636.0 61.25 647.0 65.5 654.0 68.0 C 661.0 70.5 669.75 74.0 671.5 75.0 C 673.25 76.0 676.0 77.75 677.0 78.5 C 678.0 79.25 679.75 81.0 680.5 82.0 C 681.25 83.0 682.0 84.5 682.0 86.0 "
                stroke-width="2.0" stroke="black" fill="none" latexdraw:rotationAngle="0.0"/>
        </g>
        <g latexdraw:type="text" id="id171"
            font-family="Times New Roman" fill="black" font-size="18" latexdraw:x="521.0">
            <text x="521.0" y="36.0"><![CDATA[USB Supplies 5VDC]]></text>
        </g>
        <g latexdraw:type="text" id="id174"
            font-family="Times New Roman" fill="black" font-size="18" latexdraw:x="498.0">
            <text x="498.0" y="178.0"><![CDATA[ADC Input]]></text>
        </g>
        <g latexdraw:type="text" id="id177"
            font-family="Times New Roman" fill="black" font-size="18" latexdraw:x="393.0">
            <text x="393.0" y="137.0"><![CDATA[Ribbon Cable]]></text>
        </g>
        <g latexdraw:type="text" id="id180"
            font-family="Times New Roman" fill="black" font-size="18" latexdraw:x="407.0">
            <text x="407.0" y="55.0"><![CDATA[USB Cable]]></text>
        </g>
    </g>
    <metadata>
        <latexdraw:metadata>
            <latexdraw:displayBorders>false</latexdraw:displayBorders>
            <latexdraw:autoAdjust>true</latexdraw:autoAdjust>
            <latexdraw:ppc>50</latexdraw:ppc>
            <latexdraw:zoom>1.25</latexdraw:zoom>
            <latexdraw:unit>cm</latexdraw:unit>
            <latexdraw:classicGrid>false</latexdraw:classicGrid>
            <latexdraw:gridGap>10</latexdraw:gridGap>
            <latexdraw:code>0</latexdraw:code>
            <latexdraw:displayGrid>true</latexdraw:displayGrid>
            <latexdraw:magneticGrid>false</latexdraw:magneticGrid>
            <latexdraw:autoUpdate>true</latexdraw:autoUpdate>
            <latexdraw:version>2.0.8</latexdraw:version>
            <latexdraw:size>
                <latexdraw:width>1916</latexdraw:width>
                <latexdraw:height>1058</latexdraw:height>
            </latexdraw:size>
            <latexdraw:position>
                <latexdraw:x>0</latexdraw:x>
                <latexdraw:y>22</latexdraw:y>
            </latexdraw:position>
            <latexdraw:dividerPosition>0.8689979123173278</latexdraw:dividerPosition>
            <latexdraw:displayCodePanel>true</latexdraw:displayCodePanel>
            <latexdraw:displayXScale>true</latexdraw:displayXScale>
            <latexdraw:displayYScale>true</latexdraw:displayYScale>
            <latexdraw:delimitorOpacity>130</latexdraw:delimitorOpacity>
        </latexdraw:metadata>
    </metadata>
</svg>
